<svg xmlns="http://www.w3.org/2000/svg" viewBox="0 0 100 100" width="100" height="100">
    <defs>
        <radialGradient id="grad-byakugan" cx="50%" cy="50%" r="50%" fx="50%" fy="50%">
            <stop offset="0%" style="stop-color:#FFFFFF;stop-opacity:1" />
            <stop offset="60%" style="stop-color:#E0E0E0;stop-opacity:1" />
            <stop offset="85%" style="stop-color:#C0C0C0;stop-opacity:1" />
            <stop offset="100%" style="stop-color:#A0A0A0;stop-opacity:1" />
        </radialGradient>
    </defs>
    <circle cx="50" cy="50" r="48" fill="url(#grad-byakugan)" stroke="#808080" stroke-width="2"/>
    <circle cx="50" cy="50" r="12" fill="#FFFFFF"/>
    <circle cx="50" cy="50" r="8" fill="#D1D1D1"/>
    <circle cx="50" cy="50" r="4" fill="#A0A0A0"/>

    <!-- Veins -->
    <path d="M 50 2 Q 40 15, 30 20" stroke="#B0B0B0" stroke-width="1.2" fill="none" opacity="0.8" />
    <path d="M 50 2 Q 60 15, 70 20" stroke="#B0B0B0" stroke-width="1.2" fill="none" opacity="0.8" />

    <path d="M 98 50 Q 85 40, 80 30" stroke="#B0B0B0" stroke-width="1.2" fill="none" opacity="0.8" />
    <path d="M 98 50 Q 85 60, 80 70" stroke="#B0B0B0" stroke-width="1.2" fill="none" opacity="0.8" />
    
    <path d="M 50 98 Q 40 85, 30 80" stroke="#B0B0B0" stroke-width="1.2" fill="none" opacity="0.8" />
    <path d="M 50 98 Q 60 85, 70 80" stroke="#B0B0B0" stroke-width="1.2" fill="none" opacity="0.8" />

    <path d="M 2 50 Q 15 40, 20 30" stroke="#B0B0B0" stroke-width="1.2" fill="none" opacity="0.8" />
    <path d="M 2 50 Q 15 60, 20 70" stroke="#B0B0B0" stroke-width="1.2" fill="none" opacity="0.8" />
    
    <path d="M 20 20 Q 30 30, 35 45" stroke="#B0B0B0" stroke-width="1" fill="none" opacity="0.6" />
    <path d="M 80 20 Q 70 30, 65 45" stroke="#B0B0B0" stroke-width="1" fill="none" opacity="0.6" />
    <path d="M 20 80 Q 30 70, 35 55" stroke="#B0B0B0" stroke-width="1" fill="none" opacity="0.6" />
    <path d="M 80 80 Q 70 70, 65 55" stroke="#B0B0B0" stroke-width="1" fill="none" opacity="0.6" />
</svg>
