<svg xmlns="http://www.w3.org/2000/svg" viewBox="0 0 100 100" width="100" height="100">
    <defs>
        <radialGradient id="grad-sharingan" cx="50%" cy="50%" r="50%" fx="50%" fy="50%">
            <stop offset="0%" style="stop-color:#FF4444;stop-opacity:1" />
            <stop offset="80%" style="stop-color:#DD0000;stop-opacity:1" />
            <stop offset="100%" style="stop-color:#AA0000;stop-opacity:1" />
        </radialGradient>
    </defs>
    <circle cx="50" cy="50" r="48" fill="url(#grad-sharingan)" stroke="#660000" stroke-width="3"/>
    <circle cx="50" cy="50" r="12" fill="#000000"/>
    <circle cx="50" cy="50" r="22" stroke="#000000" stroke-width="2" fill="none"/>

    <!-- Tomoe 1 -->
    <path d="M 50 29 A 10 10 0 1 1 50 28.9" fill="#000000" transform="rotate(0 50 50)" />
    <circle cx="50" cy="29" r="4" fill="#000000" transform="rotate(0 50 50)"/>

    <!-- Tomoe 2 -->
    <g transform="rotate(120 50 50)">
        <path d="M 50 29 A 10 10 0 1 1 50 28.9" fill="#000000"/>
        <circle cx="50" cy="29" r="4" fill="#000000"/>
    </g>

    <!-- Tomoe 3 -->
    <g transform="rotate(240 50 50)">
        <path d="M 50 29 A 10 10 0 1 1 50 28.9" fill="#000000"/>
        <circle cx="50" cy="29" r="4" fill="#000000"/>
    </g>
</svg>
